<?xml version="1.0" standalone="no"?>
<!DOCTYPE svg PUBLIC "-//W3C//DTD SVG 20010904//EN"
 "http://www.w3.org/TR/2001/REC-SVG-20010904/DTD/svg10.dtd">
<svg version="1.0" xmlns="http://www.w3.org/2000/svg"
 width="100.000000pt" height="100.000000pt" viewBox="0 0 100.000000 100.000000"
 preserveAspectRatio="xMidYMid meet">

<g transform="translate(0.000000,100.000000) scale(0.100000,-0.100000)"
fill="#dc81a0" stroke="none">
<path d="M439 990 c-26 -4 -57 -14 -70 -21 -45 -24 -158 -154 -160 -184 0 -2
-6 -26 -14 -52 -18 -57 -19 -93 -4 -93 6 0 1 -12 -11 -27 -17 -22 -21 -39 -19
-83 1 -30 -1 -63 -5 -72 -10 -22 -3 -54 11 -51 12 3 10 -89 -2 -127 -14 -43
58 -120 112 -120 43 0 73 22 85 62 6 21 15 38 20 38 12 0 10 78 -2 85 -5 3
-10 22 -10 42 l0 36 23 -34 c14 -20 37 -39 62 -47 22 -8 51 -19 65 -25 14 -5
37 -9 51 -8 16 1 29 -4 32 -13 10 -25 24 -19 36 16 13 36 19 33 38 -20 42
-112 41 -122 -12 -153 -49 -29 -58 -50 -44 -99 13 -43 20 -48 38 -26 9 10 9
20 0 40 -11 24 -9 29 39 76 29 28 52 57 52 65 0 7 18 29 40 48 28 24 38 39 34
51 -4 12 0 16 15 16 12 0 21 5 21 11 0 16 -51 79 -60 74 -15 -10 -21 30 -13
99 4 39 6 75 4 80 -1 6 -11 51 -21 100 -14 67 -16 94 -7 104 7 9 7 16 0 20 -5
4 -18 29 -28 55 -16 42 -25 51 -67 70 -26 11 -48 24 -48 28 0 7 -128 52 -134
48 0 -1 -22 -5 -47 -9z m177 -126 c28 -19 33 -38 41 -160 5 -94 4 -104 -18
-145 -13 -24 -28 -47 -32 -50 -14 -10 -76 25 -66 37 6 7 3 25 -6 47 -22 54
-20 84 7 82 12 -1 23 -6 25 -12 5 -13 63 -3 63 11 0 18 -22 36 -43 36 -10 0
-15 5 -12 10 3 6 19 10 36 10 29 0 39 13 19 25 -6 3 -30 3 -55 -1 -37 -5 -47
-12 -60 -37 -20 -40 -19 -106 2 -129 14 -16 15 -18 0 -18 -9 0 -22 -8 -29 -19
-7 -10 -24 -22 -38 -26 -24 -8 -49 -32 -50 -47 0 -12 33 -9 50 3 12 8 10 9 -7
4 -14 -4 -23 -2 -23 4 0 7 21 11 53 10 38 -1 45 -3 27 -8 -24 -7 -24 -7 7 -14
18 -3 40 -4 48 -1 17 7 21 -11 4 -21 -6 -4 -8 -13 -5 -20 6 -16 -42 -35 -88
-35 -27 0 -37 9 -80 73 -44 63 -50 80 -54 134 -6 90 2 113 38 113 17 0 30 -4
30 -10 0 -5 -8 -10 -19 -10 -23 0 -45 -25 -35 -41 5 -8 10 -7 16 5 8 13 13 15
24 6 18 -16 44 9 44 43 0 21 -6 26 -36 32 -22 4 -41 2 -47 -4 -18 -18 -27 -13
-27 14 0 33 22 86 44 104 37 31 207 34 252 5z m-378 -109 c2 -19 -4 -50 -12
-70 -17 -40 -31 -48 -16 -9 6 14 10 42 10 63 0 31 6 51 15 51 0 0 2 -16 3 -35z"/>
<path d="M493 453 c-18 -7 -16 -33 2 -33 8 0 19 9 25 20 11 21 2 25 -27 13z"/>
</g>
</svg>
